{
    "asset" : {
        "generator" : "Khronos glTF Blender I/O v1.3.48",
        "version" : "2.0"
    },
    "scene" : 0,
    "scenes" : [
        {
            "name" : "Scene",
            "nodes" : [
                0
            ]
        }
    ],
    "nodes" : [
        {
            "mesh" : 0,
            "name" : "Ship-Frame",
            "scale" : [
                4.351285934448242,
                0.3951720893383026,
                1.638692021369934
            ],
            "translation" : [
                0,
                0.9281812906265259,
                1.0562715530395508
            ]
        }
    ],
    "materials" : [
        {
            "doubleSided" : true,
            "emissiveFactor" : [
                0,
                0,
                0
            ],
            "name" : "Material-Shiny-Ship",
            "pbrMetallicRoughness" : {
                "baseColorTexture" : {
                    "index" : 0,
                    "texCoord" : 0
                },
                "metallicFactor" : 0,
                "roughnessFactor" : 0.5
            }
        }
    ],
    "meshes" : [
        {
            "name" : "Cube.001",
            "primitives" : [
                {
                    "attributes" : {
                        "POSITION" : 0,
                        "NORMAL" : 1,
                        "TEXCOORD_0" : 2
                    },
                    "indices" : 3,
                    "material" : 0
                }
            ]
        }
    ],
    "textures" : [
        {
            "source" : 0
        }
    ],
    "images" : [
        {
            "bufferView" : 4,
            "mimeType" : "image/png",
            "name" : "Material-Spaceship-Xero"
        }
    ],
    "accessors" : [
        {
            "bufferView" : 0,
            "componentType" : 5126,
            "count" : 553,
            "max" : [
                1.6756223440170288,
                2.8397912979125977,
                4.13910436630249
            ],
            "min" : [
                -1.6756223440170288,
                -9.338666915893555,
                -5.501958847045898
            ],
            "type" : "VEC3"
        },
        {
            "bufferView" : 1,
            "componentType" : 5126,
            "count" : 553,
            "type" : "VEC3"
        },
        {
            "bufferView" : 2,
            "componentType" : 5126,
            "count" : 553,
            "type" : "VEC2"
        },
        {
            "bufferView" : 3,
            "componentType" : 5123,
            "count" : 900,
            "type" : "SCALAR"
        }
    ],
    "bufferViews" : [
        {
            "buffer" : 0,
            "byteLength" : 6636,
            "byteOffset" : 0
        },
        {
            "buffer" : 0,
            "byteLength" : 6636,
            "byteOffset" : 6636
        },
        {
            "buffer" : 0,
            "byteLength" : 4424,
            "byteOffset" : 13272
        },
        {
            "buffer" : 0,
            "byteLength" : 1800,
            "byteOffset" : 17696
        },
        {
            "buffer" : 0,
            "byteLength" : 234035,
            "byteOffset" : 19496
        }
    ],
    "buffers" : [
        {
            "byteLength" : 253532,
            "uri" : "data:application/octet-stream;base64,"
        }
    ]
}
