{
    "asset" : {
        "copyright" : "Sauve Tech",
        "generator" : "Khronos glTF Blender I/O v1.3.48",
        "version" : "2.0"
    },
    "extensionsUsed" : [
        "KHR_materials_clearcoat"
    ],
    "scene" : 0,
    "scenes" : [
        {
            "name" : "Scene",
            "nodes" : [
                0
            ]
        }
    ],
    "nodes" : [
        {
            "mesh" : 0,
            "name" : "Shroud-Cone"
        }
    ],
    "materials" : [
        {
            "doubleSided" : true,
            "emissiveFactor" : [
                0,
                0,
                0
            ],
            "name" : "Material-Shroud-GreenPasata",
            "pbrMetallicRoughness" : {
                "baseColorTexture" : {
                    "index" : 0,
                    "texCoord" : 0
                },
                "metallicFactor" : 0,
                "roughnessFactor" : 0.5
            }
        },
        {
            "alphaMode" : "BLEND",
            "emissiveFactor" : [
                0,
                0,
                0
            ],
            "extensions" : {
                "KHR_materials_clearcoat" : {
                    "clearcoatFactor" : 0.07801400125026703,
                    "clearcoatRoughnessFactor" : 0.029999999329447746
                }
            },
            "name" : "Material-Shroud-Transparencee",
            "pbrMetallicRoughness" : {
                "baseColorFactor" : [
                    0.07323560863733292,
                    0.005642294883728027,
                    0.03341856971383095,
                    0.5106382966041565
                ],
                "metallicFactor" : 0,
                "roughnessFactor" : 0.3581560254096985
            }
        }
    ],
    "meshes" : [
        {
            "name" : "Cone",
            "primitives" : [
                {
                    "attributes" : {
                        "POSITION" : 0,
                        "NORMAL" : 1,
                        "TEXCOORD_0" : 2
                    },
                    "indices" : 3,
                    "material" : 0
                },
                {
                    "attributes" : {
                        "POSITION" : 4,
                        "NORMAL" : 5,
                        "TEXCOORD_0" : 6
                    },
                    "indices" : 7,
                    "material" : 1
                }
            ]
        }
    ],
    "textures" : [
        {
            "source" : 0
        }
    ],
    "images" : [
        {
            "bufferView" : 4,
            "mimeType" : "image/png",
            "name" : "Material-Shroud-GreenPasata"
        }
    ],
    "accessors" : [
        {
            "bufferView" : 0,
            "componentType" : 5126,
            "count" : 1752,
            "max" : [
                1.4952245950698853,
                1.7329668998718262,
                1.5018212795257568
            ],
            "min" : [
                -1.5823419094085693,
                -1.8250000476837158,
                -1.649999976158142
            ],
            "type" : "VEC3"
        },
        {
            "bufferView" : 1,
            "componentType" : 5126,
            "count" : 1752,
            "type" : "VEC3"
        },
        {
            "bufferView" : 2,
            "componentType" : 5126,
            "count" : 1752,
            "type" : "VEC2"
        },
        {
            "bufferView" : 3,
            "componentType" : 5123,
            "count" : 2634,
            "type" : "SCALAR"
        },
        {
            "bufferView" : 5,
            "componentType" : 5126,
            "count" : 300,
            "max" : [
                1.4930166006088257,
                1.7273156642913818,
                1.2798287868499756
            ],
            "min" : [
                -1.166724681854248,
                -1.8250000476837158,
                -1.4481641054153442
            ],
            "type" : "VEC3"
        },
        {
            "bufferView" : 6,
            "componentType" : 5126,
            "count" : 300,
            "type" : "VEC3"
        },
        {
            "bufferView" : 7,
            "componentType" : 5126,
            "count" : 300,
            "type" : "VEC2"
        },
        {
            "bufferView" : 8,
            "componentType" : 5123,
            "count" : 450,
            "type" : "SCALAR"
        }
    ],
    "bufferViews" : [
        {
            "buffer" : 0,
            "byteLength" : 21024,
            "byteOffset" : 0
        },
        {
            "buffer" : 0,
            "byteLength" : 21024,
            "byteOffset" : 21024
        },
        {
            "buffer" : 0,
            "byteLength" : 14016,
            "byteOffset" : 42048
        },
        {
            "buffer" : 0,
            "byteLength" : 5268,
            "byteOffset" : 56064
        },
        {
            "buffer" : 0,
            "byteLength" : 859140,
            "byteOffset" : 61332
        },
        {
            "buffer" : 0,
            "byteLength" : 3600,
            "byteOffset" : 920472
        },
        {
            "buffer" : 0,
            "byteLength" : 3600,
            "byteOffset" : 924072
        },
        {
            "buffer" : 0,
            "byteLength" : 2400,
            "byteOffset" : 927672
        },
        {
            "buffer" : 0,
            "byteLength" : 900,
            "byteOffset" : 930072
        }
    ],
    "buffers" : [
        {
            "byteLength" : 930972,
            "uri" : "data:application/octet-stream;base64,"
        }
    ]
}
